<svg xmlns="http://www.w3.org/2000/svg" width="20" height="20" viewBox="0 0 20 20">
    <g fill="none" fill-rule="evenodd">
        <g fill="#14171A" fill-rule="nonzero">
            <g>
                <g>
                    <g>
                        <g>
                            <path d="M19.23 5.217H15.2l.382-4.382c.036-.423-.277-.795-.7-.833-.428-.03-.796.277-.833.7l-.393 4.514H7.174l.38-4.38C7.592.412 7.277.04 6.856.002c-.43-.03-.797.277-.833.7L5.63 5.217H1.57c-.424 0-.769.345-.769.769 0 .424.345.77.77.77h3.925l-.564 6.489H.77c-.424 0-.769.344-.769.769 0 .425.345.77.77.77H4.8l-.382 4.381c-.036.423.277.795.7.833l.068.003c.395 0 .73-.303.765-.704l.393-4.513h6.482l-.38 4.38c-.037.424.277.796.7.834l.067.003c.395 0 .73-.303.765-.704l.392-4.513h4.059c.423 0 .769-.345.769-.769 0-.424-.346-.77-.77-.77h-3.925l.564-6.489h4.164c.424 0 .769-.344.769-.769 0-.425-.345-.77-.77-.77zm-6.271 8.027H6.477l.564-6.489h6.482l-.564 6.489z" transform="translate(-231.000000, -136.000000) translate(218.000000, 0.500000) translate(0.000000, 14.500000) translate(13.000000, 118.000000) translate(0.000000, 3.000000)"/>
                        </g>
                    </g>
                </g>
            </g>
        </g>
    </g>
</svg>
