<svg xmlns="http://www.w3.org/2000/svg" width="22" height="22" viewBox="0 0 22 22">
    <g fill="none" fill-rule="evenodd">
        <g fill="#14171A" fill-rule="nonzero">
            <g>
                <g>
                    <g>
                        <g>
                            <path d="M19.525 22H2.475C1.111 22 0 20.889 0 19.525V2.475C0 1.111 1.111 0 2.475 0h17.05C20.889 0 22 1.111 22 2.475v17.05C22 20.889 20.889 22 19.525 22zM2.475 1.65c-.455 0-.825.37-.825.825v17.05c0 .454.37.825.825.825h17.05c.455 0 .825-.37.825-.825V2.475c0-.454-.37-.825-.825-.825H2.475z" transform="translate(-230.000000, -375.000000) translate(218.000000, 0.500000) translate(0.000000, 14.500000) translate(12.000000, 358.000000) translate(0.000000, 2.000000)"/>
                            <path d="M17.152 7.698H5.848c-.468 0-.848-.382-.848-.85C5 6.382 5.38 6 5.848 6h11.304c.468 0 .848.38.848.849 0 .47-.38.849-.848.849zm0 4.65H5.848c-.468 0-.848-.38-.848-.848 0-.469.38-.849.848-.849h11.304c.468 0 .848.38.848.849s-.38.849-.848.849zM11.5 17H5.848C5.38 17 5 16.62 5 16.151c0-.47.38-.849.848-.849H11.5c.468 0 .848.382.848.85 0 .467-.38.848-.848.848z" transform="translate(-230.000000, -375.000000) translate(218.000000, 0.500000) translate(0.000000, 14.500000) translate(12.000000, 358.000000) translate(0.000000, 2.000000)"/>
                        </g>
                    </g>
                </g>
            </g>
        </g>
    </g>
</svg>
