<svg xmlns="http://www.w3.org/2000/svg" width="16" height="21" viewBox="0 0 16 21">
    <g fill="none" fill-rule="evenodd">
        <g fill="#1DA1F2" fill-rule="nonzero">
            <g>
                <g>
                    <g>
                        <g>
                            <path d="M7.975 10.161c-1.356 0-2.872-.15-3.84-1.256-.814-.93-1.077-2.368-.805-4.392C3.71 1.687 5.446 0 7.976 0s4.267 1.687 4.646 4.513c.272 2.024.008 3.46-.806 4.392-.97 1.106-2.485 1.255-3.84 1.255l-.001.001zm5.849 9.85H2.126c-.663 0-1.25-.28-1.65-.786-.422-.534-.576-1.27-.41-1.968.834-3.53 4.086-5.997 7.908-5.997s7.074 2.466 7.91 5.997c.164.698.01 1.434-.412 1.967-.4.505-.985.785-1.648.785v.002z" transform="translate(-233.000000, -437.000000) translate(218.000000, 0.500000) translate(0.000000, 14.500000) translate(15.000000, 420.000000) translate(0.000000, 2.000000)"/>
                        </g>
                    </g>
                </g>
            </g>
        </g>
    </g>
</svg>
