<svg xmlns="http://www.w3.org/2000/svg" width="14" height="13" viewBox="0 0 14 13">
    <g fill="none" fill-rule="evenodd">
        <g fill="#6E7F8D" fill-rule="nonzero">
            <g>
                <g>
                    <g>
                        <g>
                            <g>
                                <path d="M12.568 0H1.432C.64 0 0 .655 0 1.462v10.075C0 12.345.64 13 1.432 13h11.136C13.36 13 14 12.345 14 11.537V1.463C14 .656 13.36 0 12.568 0zM10.5 7.478c0 .314-.25.568-.557.568-.307 0-.557-.255-.557-.569V5.179l-4.802 4.904c-.108.11-.252.167-.395.167-.143 0-.284-.056-.393-.167-.218-.223-.218-.583 0-.804l4.803-4.906H6.346c-.307 0-.556-.255-.556-.57 0-.313.25-.568.556-.568h3.596c.307 0 .557.254.557.568v3.673l.001.002z" transform="translate(-1179.000000, -388.000000) translate(218.000000, 0.500000) translate(885.000000, 6.500000) translate(0.000000, 270.000000) translate(16.000000, 55.000000) translate(60.000000, 56.000000)"/>
                            </g>
                        </g>
                    </g>
                </g>
            </g>
        </g>
    </g>
</svg>
