<svg xmlns="http://www.w3.org/2000/svg" width="16" height="14" viewBox="0 0 16 14">
    <g fill="none" fill-rule="evenodd">
        <g fill="#6E7F8D" fill-rule="nonzero">
            <g>
                <g>
                    <g>
                        <g>
                            <path d="M8 14h-.01C5.933 13.964 0 8.98 0 4.26 0 1.99 2.01 0 4.301 0 6.124 0 7.351 1.17 8 2.02 8.648 1.172 9.874 0 11.698 0 13.99 0 16 1.991 16 4.26c0 4.72-5.934 9.704-7.99 9.739H8V14zM4.303 1.111c-1.656 0-3.107 1.472-3.107 3.15 0 4.248 5.6 8.583 6.807 8.629 1.208-.046 6.806-4.38 6.806-8.63 0-1.677-1.451-3.149-3.107-3.149-2.012 0-3.137 2.173-3.146 2.195-.183.416-.92.416-1.104 0C7.44 3.283 6.316 1.11 4.303 1.11z" transform="translate(-752.000000, -999.000000) translate(218.000000, 0.500000) translate(271.000000, 566.134328) translate(61.000000, 431.365672) translate(202.000000, 1.000000)"/>
                        </g>
                    </g>
                </g>
            </g>
        </g>
    </g>
</svg>
