<svg xmlns="http://www.w3.org/2000/svg" width="19" height="22" viewBox="0 0 19 22">
    <g fill="none" fill-rule="evenodd">
        <g fill="#14171A" fill-rule="nonzero">
            <g>
                <g>
                    <g>
                        <g>
                            <path d="M16.55 20.15c-.157 0-.312-.05-.442-.144L8.65 14.578l-7.458 5.43c-.228.164-.53.19-.782.06-.25-.127-.41-.385-.41-.667V2.25C0 1.01 1.01 0 2.25 0h12.798c1.24 0 2.25 1.01 2.25 2.25V19.4c0 .282-.158.54-.41.668-.106.055-.223.082-.34.082h.002zm-7.9-7.25c.155 0 .31.048.44.144l6.71 4.883V2.25c0-.412-.337-.75-.75-.75H2.25c-.413 0-.75.338-.75.75v15.677l6.71-4.883c.13-.096.285-.144.44-.144z" transform="translate(-232.000000, -316.000000) translate(218.000000, 0.500000) translate(0.000000, 14.500000) translate(14.350000, 299.000000) translate(-0.000000, 2.350000)"/>
                        </g>
                    </g>
                </g>
            </g>
        </g>
    </g>
</svg>
