<svg xmlns="http://www.w3.org/2000/svg" width="23" height="23" viewBox="0 0 23 23">
    <g fill="none" fill-rule="evenodd">
        <g fill="#14171A" fill-rule="nonzero">
            <g>
                <g>
                    <g>
                        <g>
                            <path d="M22.583 6.377L11.877.104c-.237-.139-.52-.139-.756 0L.417 6.377c-.386.226-.53.75-.321 1.17.143.287.417.451.7.451.126 0 .257-.034.376-.103l.864-.506 1.726 13.24C3.99 22.026 5.148 23 6.58 23h9.836c1.433 0 2.591-.975 2.822-2.4L20.96 7.386l.867.509c.386.222.87.069 1.078-.35.208-.417.064-.94-.322-1.168zM17.668 20.33c-.114.697-.745.945-1.25.945H6.58c-.508 0-1.139-.248-1.248-.918L3.529 6.515l7.97-4.672 7.97 4.67-1.801 13.817z" transform="translate(-229.000000, -73.000000) translate(218.000000, 0.500000) translate(0.000000, 14.500000) translate(11.000000, 57.000000) translate(0.000000, 1.000000)"/>
                            <path d="M7.318 12.65c0 2.536 1.875 4.6 4.182 4.6 2.307 0 4.182-2.064 4.182-4.6 0-2.536-1.875-4.6-4.182-4.6-2.307 0-4.182 2.064-4.182 4.6zm6.704 0c0 1.53-1.13 2.775-2.522 2.775S8.978 14.18 8.978 12.65c0-1.53 1.13-2.775 2.522-2.775s2.522 1.244 2.522 2.775z" transform="translate(-229.000000, -73.000000) translate(218.000000, 0.500000) translate(0.000000, 14.500000) translate(11.000000, 57.000000) translate(0.000000, 1.000000)"/>
                        </g>
                    </g>
                </g>
            </g>
        </g>
    </g>
</svg>
