<svg xmlns="http://www.w3.org/2000/svg" width="23" height="23" viewBox="0 0 23 23">
    <g fill="none" fill-rule="evenodd">
        <g fill="#14171A" fill-rule="nonzero">
            <g>
                <g>
                    <g>
                        <g>
                            <path d="M15.25 9c-.965 0-1.75.787-1.75 1.75s.784 1.75 1.75 1.75c.964 0 1.75-.786 1.75-1.75S16.214 9 15.25 9zm0 2.5c-.414 0-.75-.336-.75-.75 0-.413.337-.75.75-.75s.75.336.75.75c0 .413-.336.75-.75.75zM10.75 9C9.784 9 9 9.787 9 10.75s.785 1.75 1.75 1.75 1.75-.786 1.75-1.75S11.716 9 10.75 9zm0 2.5c-.414 0-.75-.336-.75-.75 0-.413.337-.75.75-.75s.75.336.75.75c0 .413-.336.75-.75.75zM6.25 9c-.965 0-1.75.787-1.75 1.75s.785 1.75 1.75 1.75c.964 0 1.75-.786 1.75-1.75S7.213 9 6.25 9zm0 2.5c-.414 0-.75-.336-.75-.75 0-.413.337-.75.75-.75s.75.336.75.75c0 .413-.336.75-.75.75z" transform="translate(-230.000000, -496.000000) translate(218.000000, 0.500000) translate(0.000000, 14.500000) translate(12.250000, 479.000000) translate(0.000000, 2.250000)"/>
                            <path d="M10.75 21.5C4.822 21.5 0 16.678 0 10.75S4.822 0 10.75 0 21.5 4.822 21.5 10.75 16.678 21.5 10.75 21.5zm0-20c-5.1 0-9.25 4.15-9.25 9.25S5.65 20 10.75 20 20 15.85 20 10.75 15.85 1.5 10.75 1.5z" transform="translate(-230.000000, -496.000000) translate(218.000000, 0.500000) translate(0.000000, 14.500000) translate(12.250000, 479.000000) translate(0.000000, 2.250000)"/>
                        </g>
                    </g>
                </g>
            </g>
        </g>
    </g>
</svg>
