<svg xmlns="http://www.w3.org/2000/svg" width="9" height="15" viewBox="0 0 9 15">
    <g fill="none" fill-rule="evenodd">
        <g fill="#6E7F8D" fill-rule="nonzero">
            <g>
                <g>
                    <g>
                        <g>
                            <path d="M4.5 15c-.316 0-.573-.252-.573-.563V.563C3.927.252 4.184 0 4.5 0c.316 0 .573.252.573.563v13.874c0 .311-.257.563-.573.563zm3.927 0c-.317 0-.573-.252-.573-.563V4.418c0-.31.256-.562.573-.562.317 0 .573.251.573.563v10.02c0 .31-.257.562-.573.562zM.573 15C.257 15 0 14.748 0 14.437V6.73c0-.31.257-.563.573-.563.316 0 .573.252.573.563v7.707c0 .311-.256.563-.573.563z" transform="translate(-959.000000, -999.000000) translate(218.000000, 0.500000) translate(271.000000, 566.134328) translate(61.000000, 431.365672) translate(409.000000, 1.000000)"/>
                        </g>
                    </g>
                </g>
            </g>
        </g>
    </g>
</svg>
