<svg xmlns="http://www.w3.org/2000/svg" width="20" height="18" viewBox="0 0 20 18">
    <g fill="none" fill-rule="evenodd">
        <g fill="#14171A" fill-rule="nonzero">
            <g>
                <g>
                    <g>
                        <g>
                            <path d="M17.25 0H2.75C1.233 0 0 1.234 0 2.752v12.495C0 16.765 1.233 18 2.75 18h14.5c1.517 0 2.75-1.235 2.75-2.753V2.752C20 1.234 18.767 0 17.25 0zM2.75 1.5h14.5c.69 0 1.25.56 1.25 1.25v.714l-8.05 5.367c-.273.18-.626.182-.9-.002L1.5 3.464V2.75c0-.69.56-1.25 1.25-1.25zm14.5 14.998H2.75c-.69 0-1.25-.56-1.25-1.25V5.222l7.24 4.83c.383.256.822.384 1.26.384.44 0 .877-.128 1.26-.383l7.24-4.83v10.022c0 .69-.56 1.25-1.25 1.25v.003z" transform="translate(-231.000000, -257.000000) translate(218.000000, 0.500000) translate(0.000000, 14.500000) translate(13.000000, 238.000000) translate(0.000000, 4.000000)"/>
                        </g>
                    </g>
                </g>
            </g>
        </g>
    </g>
</svg>
