<svg xmlns="http://www.w3.org/2000/svg" width="16" height="16" viewBox="0 0 16 16">
    <g fill="none" fill-rule="evenodd">
        <g fill="#6E7F8D" fill-rule="nonzero">
            <g>
                <g>
                    <g>
                        <g>
                            <path d="M11.828 4.253L7.915.18c-.23-.239-.601-.239-.83 0L3.174 4.253c-.23.239-.23.626 0 .864s.6.24.83 0l2.91-3.031v8.303c0 .337.263.611.587.611.324 0 .587-.274.587-.611V2.086l2.911 3.03c.115.12.265.18.415.18.15 0 .3-.058.415-.18.23-.238.23-.624 0-.863z" transform="translate(-854.000000, -998.000000) translate(218.000000, 0.500000) translate(271.000000, 566.134328) translate(61.000000, 431.365672) translate(304.000000, 0.000000)"/>
                            <path d="M14.166 16H1.834C.822 16 0 15.172 0 14.155V9.604C0 9.27.269 9 .6 9c.331 0 .6.27.6.604v4.55c0 .352.284.638.634.638h12.332c.35 0 .634-.286.634-.637V9.604c0-.333.269-.604.6-.604.331 0 .6.27.6.604v4.55C16 15.173 15.178 16 14.166 16z" transform="translate(-854.000000, -998.000000) translate(218.000000, 0.500000) translate(271.000000, 566.134328) translate(61.000000, 431.365672) translate(304.000000, 0.000000)"/>
                        </g>
                    </g>
                </g>
            </g>
        </g>
    </g>
</svg>
