<svg xmlns="http://www.w3.org/2000/svg" width="19" height="13" viewBox="0 0 19 13">
    <g fill="none" fill-rule="evenodd">
        <g fill="#6E7F8D" fill-rule="nonzero">
            <g>
                <g>
                    <g>
                        <g>
                            <path d="M18.825 9.245c-.231-.23-.607-.23-.84 0l-1.759 1.744V2.946C16.226 1.322 14.893 0 13.255 0H8.62c-.328 0-.595.264-.595.59 0 .325.267.589.595.589h4.635c.983 0 1.783.793 1.783 1.767v8.043l-1.76-1.744c-.231-.23-.608-.23-.84 0-.23.23-.232.604 0 .833l2.774 2.75c.115.115.267.172.42.172.153 0 .304-.057.42-.173l2.773-2.749c.233-.23.233-.602 0-.833zm-8.446 2.577H5.743c-.982 0-1.782-.794-1.782-1.768V2.011L5.72 3.755c.117.115.27.173.421.173.152 0 .304-.058.42-.173.232-.23.232-.603 0-.833L3.788.173c-.232-.23-.609-.23-.84 0L.175 2.923c-.233.229-.233.602 0 .832.233.23.607.23.84 0l1.759-1.744v8.043C2.774 11.68 4.107 13 5.745 13h4.635c.328 0 .595-.264.595-.59 0-.324-.267-.588-.595-.588h-.001z" transform="translate(-649.000000, -1000.000000) translate(218.000000, 0.500000) translate(271.000000, 566.134328) translate(61.000000, 431.365672) translate(99.000000, 2.000000)"/>
                        </g>
                    </g>
                </g>
            </g>
        </g>
    </g>
</svg>
