<svg xmlns="http://www.w3.org/2000/svg" width="14" height="14" viewBox="0 0 14 14">
    <g fill="none" fill-rule="evenodd">
        <g fill="#6E7F8D" fill-rule="nonzero">
            <g>
                <g>
                    <g>
                        <g>
                            <path d="M8.47.007L5.53 0C2.428 0 0 2.43 0 5.53c0 2.905 2.258 5.109 5.292 5.225v2.713c0 .077.03.203.085.286.1.16.272.246.448.246.098 0 .196-.027.285-.084.187-.119 4.588-2.934 5.733-3.903C13.19 8.873 13.998 7.2 14 5.54v-.012c-.004-3.096-2.431-5.52-5.53-5.52zm2.685 9.195c-.804.68-3.446 2.414-4.8 3.292v-2.26c0-.293-.238-.531-.532-.531h-.28c-2.595 0-4.479-1.755-4.479-4.172 0-2.506 1.962-4.468 4.466-4.468l2.94.007c2.505 0 4.467 1.961 4.468 4.463-.002 1.354-.668 2.725-1.782 3.67z" transform="translate(-550.000000, -999.000000) translate(218.000000, 0.500000) translate(271.000000, 566.134328) translate(61.000000, 431.365672) translate(0.000000, 1.000000)"/>
                        </g>
                    </g>
                </g>
            </g>
        </g>
    </g>
</svg>
