<svg xmlns="http://www.w3.org/2000/svg" width="29" height="24" viewBox="0 0 29 24">
    <g fill="none" fill-rule="evenodd">
        <g fill="#1DA1F2" fill-rule="nonzero">
            <g>
                <g>
                    <path d="M28.38 2.76c-1.044.468-2.165.783-3.343.926 1.202-.727 2.124-1.882 2.56-3.256-1.126.674-2.372 1.164-3.698 1.427C22.837.715 21.324 0 19.65 0c-3.214 0-5.821 2.635-5.821 5.887 0 .46.052.907.15 1.339-4.841-.247-9.13-2.59-12.002-6.15-.5.872-.787 1.883-.787 2.959 0 2.041 1.028 3.844 2.59 4.899-.955-.032-1.853-.296-2.638-.737v.076c0 2.851 2.006 5.23 4.671 5.77-.49.135-1.004.205-1.534.205-.375 0-.74-.035-1.096-.103.741 2.337 2.891 4.04 5.44 4.085-1.994 1.58-4.505 2.52-7.232 2.52-.47 0-.934-.028-1.39-.082 2.577 1.671 5.637 2.644 8.924 2.644 10.712 0 16.568-8.966 16.568-16.743 0-.253-.007-.508-.018-.76 1.137-.832 2.125-1.866 2.904-3.045l.002-.004z" transform="translate(-229.000000, -15.000000) translate(218.000000, 0.500000) translate(0.000000, 14.500000) translate(10.937000, 0.000000)"/>
                </g>
            </g>
        </g>
    </g>
</svg>
